<?xml version="1.0" encoding="UTF-8"?>
<svg xmlns="http://www.w3.org/2000/svg" xmlns:xlink="http://www.w3.org/1999/xlink" viewBox="0 0 48 48" width="48px" height="48px">
<g id="surface133172329">
<path style=" stroke:none;fill-rule:nonzero;fill:rgb(100%,100%,100%);fill-opacity:1;" d="M 24 4 C 12.953125 4 4 12.953125 4 24 C 4 35.046875 12.953125 44 24 44 C 35.046875 44 44 35.046875 44 24 C 44 12.953125 35.046875 4 24 4 Z M 24 8 C 32.820312 8 40 15.179688 40 24 C 40 24.9375 39.90625 25.859375 39.75 26.75 C 39.257812 26.640625 38.53125 26.507812 37.6875 26.5 C 37.0625 26.492188 36.28125 26.59375 35.625 26.6875 C 35.851562 25.992188 36 25.226562 36 24.4375 C 36 22.515625 35.0625 20.726562 33.5625 19.25 C 33.976562 17.710938 34.382812 15.070312 33.3125 14 C 30.148438 14 28.398438 16.257812 28.3125 16.375 C 27.335938 16.140625 26.328125 16 25.25 16 C 23.867188 16 22.546875 16.25 21.3125 16.625 L 21.6875 16.3125 C 21.6875 16.3125 19.929688 13.875 16.6875 13.875 C 15.554688 15.015625 16.070312 17.90625 16.5 19.375 C 14.96875 20.835938 14 22.5625 14 24.4375 C 14 25.09375 14.15625 25.71875 14.3125 26.3125 C 13.757812 26.25 11.757812 26.0625 10.9375 26.0625 C 10.210938 26.0625 9.085938 26.234375 8.1875 26.4375 C 8.0625 25.640625 8 24.828125 8 24 C 8 15.179688 15.179688 8 24 8 Z M 10.9375 26.5625 C 11.726562 26.5625 14.125 26.84375 14.4375 26.875 C 14.476562 26.984375 14.515625 27.085938 14.5625 27.1875 C 13.703125 27.109375 12.039062 26.992188 10.9375 27.125 C 10.203125 27.210938 9.265625 27.476562 8.4375 27.6875 C 8.375 27.4375 8.296875 27.195312 8.25 26.9375 C 9.125 26.75 10.273438 26.5625 10.9375 26.5625 Z M 37.6875 27 C 38.484375 27.007812 39.210938 27.140625 39.6875 27.25 C 39.664062 27.382812 39.59375 27.492188 39.5625 27.625 C 39.054688 27.507812 38.21875 27.335938 37.25 27.3125 C 36.78125 27.304688 36.03125 27.328125 35.375 27.375 C 35.40625 27.3125 35.414062 27.25 35.4375 27.1875 C 36.117188 27.09375 36.984375 26.992188 37.6875 27 Z M 12.1875 27.5625 C 13.3125 27.570312 14.367188 27.648438 14.8125 27.6875 C 15.859375 29.640625 17.976562 31.085938 21.25 31.6875 C 20.445312 32.132812 19.726562 32.757812 19.1875 33.5 C 18.71875 33.539062 18.226562 33.5625 17.75 33.5625 C 16.359375 33.5625 15.492188 32.320312 14.75 31.25 C 14 30.179688 13.078125 30.0625 12.5625 30 C 12.039062 29.9375 11.859375 30.234375 12.125 30.4375 C 13.648438 31.609375 14.195312 33 14.8125 34.25 C 15.367188 35.375 16.53125 36 17.8125 36 L 18.0625 36 C 18.023438 36.21875 18 36.421875 18 36.625 L 18 38.8125 C 13.382812 36.945312 9.867188 33 8.5625 28.125 C 9.382812 27.921875 10.304688 27.710938 11 27.625 C 11.320312 27.585938 11.726562 27.554688 12.1875 27.5625 Z M 37.25 27.8125 C 38.148438 27.835938 38.945312 28.007812 39.4375 28.125 C 38.335938 32.265625 35.617188 35.710938 32 37.8125 L 32 36.625 C 32 34.921875 30.65625 32.734375 28.75 31.6875 C 31.914062 31.109375 33.976562 29.726562 35.0625 27.875 C 35.820312 27.820312 36.710938 27.796875 37.25 27.8125 Z M 25 36 C 25.546875 36 26 36.453125 26 37 L 26 39.875 C 25.34375 39.960938 24.679688 40 24 40 L 24 37 C 24 36.453125 24.453125 36 25 36 Z M 21 38 C 21.546875 38 22 38.453125 22 39 L 22 39.875 C 21.328125 39.789062 20.648438 39.664062 20 39.5 L 20 39 C 20 38.453125 20.453125 38 21 38 Z M 29 38 C 29.484375 38 29.90625 38.351562 30 38.8125 C 29.351562 39.078125 28.6875 39.320312 28 39.5 L 28 39 C 28 38.453125 28.453125 38 29 38 Z M 29 38 "/>
</g>
</svg>
